<svg width="249" height="253" viewBox="0 0 249 253" fill="none" xmlns="http://www.w3.org/2000/svg">
<ellipse cx="124.5" cy="126.5" rx="124.5" ry="126.5" fill="#929D0E"/>
<path d="M80.827 65.4647C99.228 51.5054 181.755 63.2714 188.917 71.592C191.844 74.664 193.835 77.5441 193.835 81.6602C193.835 89.7651 194.248 97.9723 193.767 106.066C193.339 113.248 191.729 113.078 191.729 120.321C191.729 130.462 191.315 140.627 188.362 150.329L188.305 150.518C187.354 153.64 186.466 156.556 186.042 158.71C185.157 163.207 183.815 167.94 182.252 172.669C177.715 186.39 172.584 201.522 160.372 209.248C159.645 209.708 158.883 210.147 158.085 210.559C152.539 213.418 146.371 216.31 140.019 218.811C127.039 223.924 113.297 221.695 101.128 214.872C96.221 212.121 91.0066 208.676 87.0554 204.671C84.8277 202.413 82.9999 200.405 81.5005 198.594C72.937 188.25 72.2673 173.715 69.38 160.601C61.7767 126.066 59.5915 78.8636 80.827 65.4647Z" fill="#BD976A" stroke="black" stroke-width="3" stroke-linecap="round"/>
<path d="M131.127 38.7686C135.143 37.8763 138.964 36.4709 143.026 35.7939" stroke="black" stroke-width="3" stroke-linecap="round"/>
<path d="M151.95 37.5787C156.22 37.3002 160.311 36.232 164.444 35.199" stroke="black" stroke-width="3" stroke-linecap="round"/>
<path d="M121.609 32.8192C113.423 32.5418 105.464 31.0345 97.2164 31.0345" stroke="black" stroke-width="3" stroke-linecap="round"/>
<path d="M195.117 97.4352C201.344 98.127 200.636 107.33 203.487 111.132" stroke="black" stroke-width="3" stroke-linecap="round"/>
<path d="M198.922 95.9133L205.009 106.566" stroke="black" stroke-width="3" stroke-linecap="round"/>
<path d="M198.161 95.1523C201.623 100.304 205.19 105.338 208.814 110.371" stroke="black" stroke-width="3" stroke-linecap="round"/>
<path d="M207.292 106.566H208.053" stroke="black" stroke-width="3" stroke-linecap="round"/>
<path d="M194.356 95.9133L208.053 105.805" stroke="black" stroke-width="3" stroke-linecap="round"/>
<path d="M185.986 94.3914C193.063 99.0913 199.21 103.56 207.292 105.805" stroke="black" stroke-width="3" stroke-linecap="round"/>
<path d="M207.292 105.805H208.053" stroke="black" stroke-width="3" stroke-linecap="round"/>
<path d="M101.524 36.9651C96.4672 34.5379 90.1598 34.7195 84.6815 34.7195" stroke="black" stroke-width="3" stroke-linecap="round"/>
<path d="M83.9329 34.7195H82.4359" stroke="black" stroke-width="3" stroke-linecap="round"/>
<path d="M134.834 38.4622C139.312 38.4009 143.868 37.5855 148.308 37.2146C158.941 36.3264 169.785 35.7842 180.309 37.9632C183.775 38.6809 186.93 39.8823 189.852 41.8307" stroke="black" stroke-width="3" stroke-linecap="round"/>
<path d="M131.84 35.0938C124.634 31.4905 117.216 29.683 109.134 29.2717C103.676 28.994 97.9904 28.8007 92.5413 29.3549C91.4332 29.4676 90.1863 29.7214 89.1728 30.2282" stroke="black" stroke-width="3" stroke-linecap="round"/>
<path d="M101.15 36.2166C100.449 36.1165 99.9129 35.8564 99.2574 35.572C95.8865 34.1091 92.3151 33.5116 88.6738 33.1184C84.4778 32.6653 80.1258 32.3487 75.9069 32.7233C74.2247 32.8727 73.4832 32.9305 73.079 34.3452" stroke="black" stroke-width="3" stroke-linecap="round"/>
<path d="M81.6873 39.9593C78.115 38.5754 74.4684 37.576 70.6254 37.2978C68.2547 37.1261 68.1634 37.5249 67.0906 39.2107" stroke="black" stroke-width="3" stroke-linecap="round"/>
<path d="M88.952 95.5096C80.8914 98.9396 73.2718 104.399 64.8615 106.802" stroke="black" stroke-width="3" stroke-linecap="round"/>
<path d="M64.8614 94.7567C57.671 99.4153 50.3254 103.818 43.0294 108.308" stroke="black" stroke-width="3" stroke-linecap="round"/>
<path d="M167.999 98.5208C178.106 102.458 188.266 105.347 198.865 107.555" stroke="black" stroke-width="3" stroke-linecap="round"/>
<path d="M177.033 99.2737C184.155 99.6408 190.445 101.466 197.359 103.038" stroke="black" stroke-width="3" stroke-linecap="round"/>
<path d="M52.5703 76.7055C50.2686 78.0098 48.0909 79.5551 46.0356 81.2235C45.6166 79.7877 45.6402 78.4627 45.6402 76.7434C45.6402 75.8658 45.1506 75.1611 45.0343 74.2818C44.8308 72.7445 44.9053 71.0541 45.1479 69.5292C46.1313 63.3476 49.7204 58.4524 54.123 54.173C57.6413 50.7531 62.0346 47.5395 66.1277 44.8192C71.4027 41.3134 78.2594 40.3083 84.3052 38.8547C90.8066 37.2915 97.1586 35.8197 103.808 35.0866C109.898 34.4153 115.979 34.3814 122.099 34.405C134.643 34.4534 147.415 34.8682 159.533 38.3434C166.501 40.3414 174.189 42.2824 180.627 45.6523C185.107 47.9975 189.272 51.3304 193.294 54.3624C196.592 56.8483 199.701 59.457 202.459 62.5422C206.748 67.341 211.978 73.6346 211.472 80.4925C211.197 84.2139 210.49 87.9053 208.764 91.2286C208.426 91.8791 206.707 93.6672 207.855 94.0499C209.212 94.502 213.451 95.0723 212.021 95.0723C198.464 95.0723 185.371 92.6104 172.125 89.8842C162.943 87.9942 153.284 86.3909 144.442 83.1812C140.2 81.641 135.326 79.7073 132.059 76.4404C130.73 75.1118 119.237 62.9649 117.214 67.0108C115.967 69.5043 113.409 66.556 111.799 65.5718C108.978 63.848 107.179 62.0762 103.695 62.4286C93.9437 63.4146 84.9906 66.719 75.5762 69.1884C67.9668 71.1843 59.4558 72.8037 52.5703 76.7055Z" fill="black"/>
<path d="M43.5952 83.1434C44.2578 82.8342 44.7859 82.2599 45.3372 81.799C47.5959 79.9106 50.0061 78.1586 52.5703 76.7055C59.4558 72.8037 67.9668 71.1843 75.5762 69.1884C84.9906 66.719 93.9437 63.4146 103.695 62.4286C107.179 62.0762 108.978 63.848 111.799 65.5718C113.409 66.556 115.967 69.5043 117.214 67.0108C119.237 62.9649 130.73 75.1118 132.059 76.4404C135.326 79.7073 140.2 81.641 144.442 83.1812C153.284 86.3909 162.943 87.9942 172.125 89.8842C185.371 92.6104 198.464 95.0723 212.021 95.0723C213.451 95.0723 209.212 94.502 207.855 94.0499C206.707 93.6672 208.426 91.8791 208.764 91.2286C210.49 87.9053 211.197 84.2139 211.472 80.4925C211.978 73.6346 206.748 67.341 202.459 62.5422C199.701 59.457 196.592 56.8483 193.294 54.3624C189.272 51.3304 185.107 47.9975 180.627 45.6523C174.189 42.2824 166.501 40.3414 159.533 38.3434C147.415 34.8682 134.643 34.4534 122.099 34.405C115.979 34.3814 109.898 34.4153 103.808 35.0866C97.1586 35.8197 90.8066 37.2915 84.3052 38.8547C78.2594 40.3083 71.4027 41.3134 66.1277 44.8192C62.0346 47.5395 57.6413 50.7531 54.123 54.173C49.7204 58.4524 46.1313 63.3476 45.1479 69.5292C44.9053 71.0541 44.8308 72.7445 45.0343 74.2818C45.1506 75.1611 45.6402 75.8658 45.6402 76.7434C45.6402 79.0676 45.597 80.6713 46.6627 82.8025" stroke="black" stroke-width="3" stroke-linecap="round"/>
<path d="M102.759 62.2036C99.6567 62.2036 103.882 67.0794 104.267 68.2342" stroke="black" stroke-width="3" stroke-linecap="round"/>
<path d="M97.1055 65.2189C97.1055 67.0942 99.1224 67.9235 100.498 68.6111" stroke="black" stroke-width="3" stroke-linecap="round"/>
<path d="M91.0749 67.1035C92.1194 67.8266 93.0454 68.6685 94.0902 69.365" stroke="black" stroke-width="3" stroke-linecap="round"/>
<path d="M83.9135 69.365C82.9552 71.5213 85.2067 72.56 86.9288 73.1341" stroke="black" stroke-width="3" stroke-linecap="round"/>
<path d="M50.2168 64.9455C45.2751 65.0605 43.5993 66.6564 42.3505 71.027C41.4115 74.3135 38.9131 74.6927 38.9131 78.6289" stroke="black" stroke-width="3" stroke-linecap="round"/>
<path d="M49.6219 64.3506C46.1762 64.1865 41.2225 61.4462 38.3182 64.3506" stroke="black" stroke-width="3" stroke-linecap="round"/>
<path d="M58.5458 58.9962C55.7196 58.8392 52.8716 57.5014 50.2168 56.6165" stroke="black" stroke-width="3" stroke-linecap="round"/>
<path d="M110.9 44.1229C112.083 41.7571 115.571 40.0688 118.039 39.3635" stroke="black" stroke-width="3" stroke-linecap="round"/>
<path d="M166.823 44.7179H181.697" stroke="black" stroke-width="3" stroke-linecap="round"/>
<path d="M184.671 49.4773C187.09 47.4616 190.602 47.047 193.595 46.5027" stroke="black" stroke-width="3" stroke-linecap="round"/>
<path d="M192.405 63.1607H196.57" stroke="black" stroke-width="3" stroke-linecap="round"/>
<path d="M83.5329 43.528C82.1095 40.8591 76.6852 39.8073 74.014 38.7686" stroke="black" stroke-width="3" stroke-linecap="round"/>
<path d="M75.2039 70.2999C76.0792 71.7223 76.2091 72.5873 77.5836 73.2746" stroke="black" stroke-width="3" stroke-linecap="round"/>
<path d="M125.178 75.0594C125.468 76.2204 127.738 77.5291 128.748 78.034" stroke="black" stroke-width="3" stroke-linecap="round"/>
<path d="M130.533 79.2239H132.317" stroke="black" stroke-width="3" stroke-linecap="round"/>
<path d="M122.798 71.4898C124.453 74.6152 125.936 77.1151 128.748 79.2239" stroke="black" stroke-width="3" stroke-linecap="round"/>
<path d="M69.8495 72.6796C67.0381 73.1013 65.4658 75.3517 63.9002 77.4391" stroke="black" stroke-width="3" stroke-linecap="round"/>
<path d="M196.413 58.1273H200.035" stroke="black" stroke-width="3" stroke-linecap="round"/>
<path d="M179.898 92.1086C188.502 98.0408 196.184 104.842 206.531 106.566" stroke="black" stroke-width="3" stroke-linecap="round"/>
<path d="M170.767 91.3477C176.516 95.3125 182.789 98.2442 189.03 101.24" stroke="black" stroke-width="3" stroke-linecap="round"/>
<path d="M163.158 86.0212C167.468 92.1781 170.914 101.215 177.616 105.044" stroke="black" stroke-width="3" stroke-linecap="round"/>
<path d="M157.07 81.4556L173.05 94.3914" stroke="black" stroke-width="3" stroke-linecap="round"/>
<path d="M61.29 73.7768C60.2436 74.3393 59.7778 74.7721 59.0626 75.5587" stroke="black" stroke-width="3" stroke-linecap="round"/>
<path d="M59.0626 75.5587V75.7815" stroke="black" stroke-width="3" stroke-linecap="round"/>
<path d="M60.399 74.6678C59.7378 76.7573 58.6684 78.7116 57.7262 80.6817" stroke="black" stroke-width="3" stroke-linecap="round"/>
<path d="M55.4989 76.6724C54.0706 77.565 53.6287 79.0091 53.0488 80.4589" stroke="black" stroke-width="3" stroke-linecap="round"/>
<path d="M108.065 64.1992C108.971 66.6542 109.773 69.2371 110.948 71.5866C111.366 72.4222 111.295 72.1229 111.851 72.4404" stroke="black" stroke-width="3" stroke-linecap="round"/>
<path d="M144.424 79.5616C145.851 80.0875 146.617 83.6126 147.26 84.9654C147.98 86.4817 148.718 87.6178 149.126 89.2496C149.592 91.1142 151.189 92.0167 151.947 93.5338" stroke="black" stroke-width="3" stroke-linecap="round"/>
<path d="M99.0142 55.3789C96.3195 57.79 93.2362 59.859 91.2071 62.9174C89.1764 65.9781 87.7197 69.3303 85.5197 72.3068C83.9986 74.3647 82.5477 76.4972 80.2503 77.7553C78.4028 78.767 77.2295 77.4714 75.9064 76.3372" stroke="black" stroke-width="3" stroke-linecap="round"/>
<path d="M88.8038 62.6337C83.8752 65.1066 79.4095 67.5115 75.4586 71.4111C72.6353 74.1977 70.0807 77.1979 66.6961 79.3377C63.2928 81.4892 60.6314 80.7508 56.829 80.099" stroke="black" stroke-width="3" stroke-linecap="round"/>
<path d="M80.7429 62.365C73.6345 70.7898 69.8373 81.4546 64.0091 90.6826C61.8073 94.1689 59.1854 93.334 55.7542 92.1903" stroke="black" stroke-width="3" stroke-linecap="round"/>
<path d="M107.612 62.0963C96.9924 70.1983 89.137 81.6604 77.5783 88.6674C74.8835 90.301 71.4932 91.6438 68.3082 91.8768C66.6059 92.0014 66.2893 91.3944 64.8898 90.8468" stroke="black" stroke-width="3" stroke-linecap="round"/>
<path d="M92.0282 68.0077C91.1288 68.4309 90.0233 69.6574 89.4159 70.2319C86.3298 73.1504 83.425 76.3869 80.0115 78.9346C76.5912 81.4875 72.349 82.4879 68.3829 83.8607" stroke="black" stroke-width="3" stroke-linecap="round"/>
<path d="M96.596 68.2763C90.4709 72.576 84.7854 77.6563 78.056 80.905" stroke="black" stroke-width="3" stroke-linecap="round"/>
<path d="M67.0394 71.232C62.4891 78.6538 57.3582 85.3236 50.44 90.6975C50.0643 90.9893 48.6195 92.3473 47.9023 92.3993C46.2751 92.5172 43.7549 89.9915 42.5881 89.2346" stroke="black" stroke-width="3" stroke-linecap="round"/>
<path d="M61.3968 73.9189C55.3763 76.47 50.0734 80.9318 44.7377 84.6668" stroke="black" stroke-width="3" stroke-linecap="round"/>
<path d="M116.211 64.2459C112.833 70.5615 107.993 75.2628 102.239 79.4571C99.1764 81.6892 96.614 83.1133 92.8342 83.3233" stroke="black" stroke-width="3" stroke-linecap="round"/>
<path d="M107.881 65.8581C103.785 67.5826 100.332 71.315 96.8945 74.0384C94.4477 75.9769 91.7809 77.6447 89.3412 79.5616" stroke="black" stroke-width="3" stroke-linecap="round"/>
<path d="M114.298 68.009C109.007 70.7158 104.639 73.718 100.149 77.5916C96.8518 80.4357 93.4276 83.6373 89.4729 85.5664C83.1577 88.647 76.2494 87.4865 69.7289 85.9523" stroke="black" stroke-width="3" stroke-linecap="round"/>
<path d="M89.9874 65.6938C81.7151 74.2905 71.8139 81.9513 62.1399 88.9107C60.099 90.3789 57.8824 92.3193 55.2585 92.3193" stroke="black" stroke-width="3" stroke-linecap="round"/>
<path d="M89.4086 65.115C81.1091 72.706 69.9893 76.1519 59.889 80.743" stroke="black" stroke-width="3" stroke-linecap="round"/>
<path d="M106.194 64.5361C98.8509 66.8277 91.5991 68.9855 84.7138 72.4788C79.4775 75.1354 74.3565 78.0266 69.1501 80.7429" stroke="black" stroke-width="3" stroke-linecap="round"/>
<path d="M52.3644 76.6913C47.1446 84.6154 41.7043 92.5607 35 99.265" stroke="black" stroke-width="3" stroke-linecap="round"/>
<path d="M93.4603 75.5336C83.2484 78.1081 73.0753 80.8208 62.7831 83.0582" stroke="black" stroke-width="3" stroke-linecap="round"/>
<path d="M120.238 66.1585C119.285 69.8342 115.916 72.8886 112.918 74.9747C111.483 75.9735 106.512 77.3867 108.261 77.3867" stroke="black" stroke-width="3" stroke-linecap="round"/>
<path d="M112.752 66.5327C107.918 69.6604 102.712 72.4812 97.6563 75.245C95.8969 76.2069 94.1829 77.0124 92.167 77.0124" stroke="black" stroke-width="3" stroke-linecap="round"/>
<path d="M96.6583 65.4099C90.6531 69.6759 84.6034 72.6355 77.5703 74.7668" stroke="black" stroke-width="3" stroke-linecap="round"/>
<path d="M165.525 43.3278C172.87 41.1116 180.429 40.3775 187.981 41.4564" stroke="black" stroke-width="3" stroke-linecap="round"/>
<path d="M179.373 48.9419C184.226 47.154 188.794 45.1515 193.595 47.819" stroke="black" stroke-width="3" stroke-linecap="round"/>
<path d="M70.0848 44.8249C67.0533 44.1967 64.1247 43.4038 61.2478 44.9496C59.3584 45.9648 57.624 47.348 55.8624 48.5676" stroke="black" stroke-width="3" stroke-linecap="round"/>
<path d="M69.3363 40.3336C67.257 40.4151 65.1817 40.5321 63.1192 40.8326C62.0524 40.988 60.9799 41.1385 59.9378 41.4148C50.4712 43.9249 62.9499 40.7876 56.2367 43.3277" stroke="black" stroke-width="3" stroke-linecap="round"/>
<path d="M58.8566 54.1817C56.517 53.4727 54.1181 53.4332 51.7454 53.4332" stroke="black" stroke-width="3" stroke-linecap="round"/>
<path d="M166.648 40.3336C169.641 43.5628 172.578 46.6774 176.212 49.1914C176.883 49.6555 177.27 49.7456 177.501 50.439" stroke="black" stroke-width="3" stroke-linecap="round"/>
<path d="M177.876 47.0705C185.295 48.1305 192.736 49.7072 199.916 51.8529C204.204 53.1341 207.509 54.3944 210.812 57.1759" stroke="black" stroke-width="3" stroke-linecap="round"/>
<path d="M196.215 56.4274C199.793 55.7505 202.933 57.9965 205.198 60.5444" stroke="black" stroke-width="3" stroke-linecap="round"/>
<path d="M201.829 62.79C204.511 63.4985 206.684 64.6543 208.94 66.1585" stroke="black" stroke-width="3" stroke-linecap="round"/>
<path d="M119.489 69.1526C115.249 76.6342 107.329 81.679 99.2782 83.7493" stroke="black" stroke-width="3" stroke-linecap="round"/>
<path d="M98.1554 77.3867C94.5116 81.1889 87.684 82.2872 82.8102 83.7493" stroke="black" stroke-width="3" stroke-linecap="round"/>
<path d="M86.5529 75.1411C80.9128 79.4541 75.1013 83.6985 69.0452 87.4089C67.6887 88.24 66.4355 88.9892 64.845 88.9892" stroke="black" stroke-width="3" stroke-linecap="round"/>
<path d="M61.1023 78.5095C57.3004 82.1205 52.8592 87.8126 47.7947 89.8625C46.8734 90.2354 46.2093 89.9739 45.3828 89.7377" stroke="black" stroke-width="3" stroke-linecap="round"/>
<path d="M61.4766 86.3693C58.5363 89.008 54.5572 90.3874 50.9969 91.9834" stroke="black" stroke-width="3" stroke-linecap="round"/>
<path d="M50.2483 77.0124C46.1588 80.4008 43.3584 86.2586 38.6458 88.6149" stroke="black" stroke-width="3" stroke-linecap="round"/>
<path d="M42.7629 73.644C40.8381 78.3141 39.0339 83.0848 36.8785 87.6584C36.4826 88.4985 36.2404 88.7747 35.6517 89.3635" stroke="black" stroke-width="3" stroke-linecap="round"/>
<path d="M50.9969 79.6323C46.1201 81.3789 41.3519 83.1974 36.7745 85.6207" stroke="black" stroke-width="3" stroke-linecap="round"/>
<path d="M95.6492 69.883C91.3378 74.9305 86.3683 78.8598 80.783 82.4353C78.8096 83.6986 76.9989 84.9097 74.7287 85.2881" stroke="black" stroke-width="3" stroke-linecap="round"/>
<path d="M75.8698 69.1223C70.1412 72.717 64.2424 75.9847 58.1825 78.9908C57.1533 79.5014 54.8385 80.7513 53.4278 81.104" stroke="black" stroke-width="3" stroke-linecap="round"/>
<path d="M122.846 68.9321C122.616 68.9321 122.927 69.064 123.015 69.1434C123.59 69.662 124.041 70.2905 124.515 70.8973C125.063 71.5972 125.527 72.0507 126.269 72.5456" stroke="black" stroke-width="3" stroke-linecap="round"/>
<path d="M125.318 74.6376C126.022 75.2008 126.869 75.5392 127.664 75.9478C128.685 76.4721 129.703 77.4007 130.823 77.6806C133.53 78.3572 135.772 80.6766 138.378 81.6745C144.93 84.1841 152.081 85.2141 158.812 87.1477C160.583 87.6564 165.942 88.9849 164.127 88.6692C159.456 87.8568 154.826 86.3974 150.317 84.9711C144.78 83.2194 139.093 81.8261 134.003 78.9591C130.853 77.1843 127.907 75.3194 125.192 72.9682C124.869 72.689 124.112 71.9434 124.98 72.0173C125.846 72.091 126.583 72.2498 127.347 71.6581C127.993 71.1583 128.244 70.498 128.742 69.883C131.86 66.0261 127.264 71.7413 129.883 69.1222" stroke="black" stroke-width="3" stroke-linecap="round"/>
<path d="M119.233 67.8633C117.965 67.1388 113.921 71.3811 112.218 71.7217" stroke="black" stroke-width="3" stroke-linecap="round"/>
<path d="M112.919 61.1988C106.067 63.2866 99.2926 65.3202 92.2243 66.4603" stroke="black" stroke-width="3" stroke-linecap="round"/>
<path d="M110.815 66.4603C106.765 67.0254 103.05 69.0487 99.2396 70.3187" stroke="black" stroke-width="3" stroke-linecap="round"/>
<path d="M80.6491 65.7588H94.6797" stroke="black" stroke-width="3" stroke-linecap="round"/>
<path d="M79.5968 65.7588H77.843" stroke="black" stroke-width="3" stroke-linecap="round"/>
<path d="M125.251 71.158C119.096 73.2634 115.244 79.4699 110.447 83.4873C107.501 85.9541 104.662 86.3903 100.891 86.6869C95.7011 87.0951 92.1486 86.2331 87.2388 84.5965" stroke="black" stroke-width="3" stroke-linecap="round"/>
<path d="M127.554 75.7654C123.035 78.4318 118.53 80.9747 113.732 83.0606" stroke="black" stroke-width="3" stroke-linecap="round"/>
<path d="M127.938 76.5334C121.271 81.7369 116.188 89.9226 107.951 92.8089C102.455 94.7351 96.6721 95.1972 90.8864 94.878C88.0152 94.7196 83.6095 94.7196 81.0955 93.0436" stroke="black" stroke-width="3" stroke-linecap="round"/>
<path d="M116.804 76.1494C112.679 82.1848 107.255 87.8465 100.869 91.4864C95.8507 94.347 90.9024 93.9413 85.319 93.8115" stroke="black" stroke-width="3" stroke-linecap="round"/>
<path d="M92.2303 86.5163C85.3963 92.5302 75.4796 93.87 66.889 94.9633" stroke="black" stroke-width="3" stroke-linecap="round"/>
<path d="M131.01 79.2211C136.875 83.0392 142.904 87.858 149.824 89.5879" stroke="black" stroke-width="3" stroke-linecap="round"/>
<path d="M149.824 89.588H150.208" stroke="black" stroke-width="3" stroke-linecap="round"/>
<path d="M64.1086 87.2284C53.8282 92.6596 47.0379 100.056 44.535 111.319" stroke="black" stroke-width="3" stroke-linecap="round"/>
<path d="M54.3218 90.2397C47.3849 90.983 44.3653 94.3435 41.5237 100.027" stroke="black" stroke-width="3" stroke-linecap="round"/>
<path d="M57.3331 82.7115C50.0039 87.9794 43.9801 95.0725 37.7596 101.532" stroke="black" stroke-width="3" stroke-linecap="round"/>
<path d="M76.9067 90.9926C73.3116 95.2359 68.31 104.543 61.8501 104.543" stroke="black" stroke-width="3" stroke-linecap="round"/>
<path d="M117.559 79.7001C105.666 91.2959 90.1369 98.9074 76.1539 107.555" stroke="black" stroke-width="3" stroke-linecap="round"/>
<path d="M127.346 74.4303C145.237 81.9821 163.32 88.8338 181.55 95.5095" stroke="black" stroke-width="3" stroke-linecap="round"/>
<path d="M152.942 89.4869C163.713 98.9115 180.121 103.059 193.595 106.802" stroke="black" stroke-width="3" stroke-linecap="round"/>
<path d="M163.482 88.7341C173.165 91.099 182.804 93.5755 192.424 96.1787C193.829 96.5587 195.157 97.0152 196.607 97.0152" stroke="black" stroke-width="3" stroke-linecap="round"/>
<path d="M178.539 98.5209C182.452 99.8922 186.354 101.282 190.333 102.452C191.37 102.757 193.002 103.113 190.751 102.871C178.868 101.593 167.492 98.4711 156.163 94.7567C152.254 93.475 148.543 92.0851 144.912 90.1561C144.313 89.8377 141.189 88.7802 143.741 89.6542C146.475 90.5906 149.366 91.0888 152.19 91.6617C153.418 91.911 157.704 93.1285 154.113 91.2435C149.653 88.9018 135.572 83.8634 140.563 84.5517C144.712 85.124 149.823 87.1931 153.612 88.3995C163.578 91.5727 173.754 94.7452 183.265 99.1482C195.866 104.982 158.725 85.9819 145.749 81.0385C144.649 80.6197 141.224 80.1027 142.236 80.7039C149.254 84.8771 158.737 86.3583 166.41 88.9014C167.576 89.288 183.924 93.136 174.607 93.2511C170.671 93.2996 166.042 93.2304 162.185 94.0875C161.079 94.3335 163.6 95.926 164.569 96.5133C169.239 99.3411 174.606 101.66 178.79 105.213C179.064 105.446 179.417 105.731 179.417 106.091C179.417 106.928 177.706 105.989 176.949 105.631C172.108 103.342 167.198 100.045 162.98 96.7643C162.513 96.4011 161.434 96.0245 161.725 95.5095C162.749 93.6979 165.759 96.5962 167.664 97.4334C170.197 98.5463 177.891 104.27 180.964 103.456C182.099 103.156 179.506 101.458 178.413 101.03C172.693 98.7886 166.532 97.4536 160.554 96.0951C156.171 95.099 160.955 95.6236 162.227 95.6768C169.777 95.9929 177.31 96.5159 184.812 97.4334C192.421 98.3641 182.835 93.9035 180.672 92.8328C173.655 89.3598 165.825 87.0704 158.254 85.0954C157.173 84.8135 160.294 86.0049 161.307 86.4756C167.516 89.3609 173.599 92.615 179.542 96.0114C185.389 99.3522 172.664 92.6585 171.345 92.2473C169.67 91.7249 164.604 90.3195 166.326 90.658C171.535 91.682 176.634 93.1527 181.634 94.924C184.894 96.0794 188.364 96.5958 191.588 97.768C196.777 99.6549 180.515 98.6095 175.025 98.019C168.279 97.2933 161.746 94.8411 155.452 92.3728C145.571 88.4979 134.918 86.0375 125.422 81.2894C124.721 80.9388 122.671 79.9952 122.286 79.0309C122.017 78.3588 123.742 79.2693 124.377 79.6165C128.141 81.6738 135.005 86.0296 138.053 87.8976C146.793 93.2543 156.734 101.305 166.828 104.125C176.156 106.732 186.304 108.936 196.021 109.06C201.001 109.124 201.2 110.072 195.728 109.73C189.616 109.348 183.299 107.296 177.535 105.296C176.183 104.827 174.87 104.222 173.478 103.874C173.311 103.833 184.445 105.725 184.645 105.756C193.116 107.091 218.733 109.06 210.157 109.06" stroke="black" stroke-width="3" stroke-linecap="round"/>
<path d="M123.643 78.046C115.657 82.9405 109.132 89.9626 100.862 94.5572C91.3474 99.8431 79.7618 100.946 69.1495 102.008" stroke="black" stroke-width="3" stroke-linecap="round"/>
<path d="M115.14 73.7948C108.454 81.4357 101.915 89.2898 94.2919 96.0387C90.9995 98.9537 87.2176 102.045 82.7191 102.824C77.5851 103.712 72.0984 101.856 67.217 100.462" stroke="black" stroke-width="3" stroke-linecap="round"/>
<path d="M130.213 77.6595C123.88 84.7745 117.584 91.9318 109.944 97.692C104.699 101.647 98.6202 103.229 92.2522 104.52C84.5769 106.076 76.6875 107.209 68.8489 107.418C67.3237 107.459 65.9209 107.502 64.5117 107.032" stroke="black" stroke-width="3" stroke-linecap="round"/>
<path d="M136.01 83.0702C131.535 84.6266 127.41 87.4054 123.299 89.6833C113.92 94.8811 104.419 99.37 94.1417 102.523C89.4694 103.956 83.4329 105.965 78.4249 104.713" stroke="black" stroke-width="3" stroke-linecap="round"/>
<path d="M120.937 74.9542C115.298 77.5009 109.863 80.3405 104.061 82.5549C95.0543 85.9926 85.7885 88.3335 76.4926 90.7998" stroke="black" stroke-width="3" stroke-linecap="round"/>
<path d="M65.1663 96.8273C64.6472 100.461 63.9442 104.834 62.0408 108.035C61.2746 109.323 60.4874 110.512 60.3676 108.145C60.2209 105.249 60.5667 103.052 62.1829 100.647C62.9704 99.4757 65.2872 95.9348 64.4402 97.0641C62.4735 99.6863 60.5932 102.898 59.9098 106.125C59.6868 107.178 59.9456 108.29 59.6257 109.313C59.2668 110.462 60.6157 108.016 60.6991 107.924C63.2678 105.111 66.7795 103.468 69.4757 100.821C71.0278 99.2971 72.5604 97.4329 73.7535 95.6118C74.1282 95.0399 76.5804 91.3759 74.5585 91.7129C70.16 92.446 65.4156 95.9181 61.9303 98.5321C60.0755 99.9232 62.4613 97.8658 62.5775 97.7428C64.2398 95.9845 65.8713 94.1482 67.8814 92.7705C69.6005 91.5922 69.5195 92.6123 69.1442 94.2385C68.1811 98.4119 66.8382 102.522 65.6872 106.646C64.8435 109.668 63.9929 112.693 63.3668 115.77C63.3067 116.065 63.1774 116.955 63.1774 116.654C63.1774 115.695 63.1696 108.727 60.7464 110.545C58.2588 112.41 56.7475 115.695 55.8688 118.595C55.3712 120.237 57.71 115.699 58.5839 114.223C59.2548 113.089 61.4244 108.416 59.9414 112.77C58.7793 116.182 57.365 119.497 56.1056 122.873C55.6175 124.181 54.8166 128.211 54.7007 126.819C54.5082 124.51 55.3475 122.223 55.7425 119.984C55.973 118.678 55.3009 121.185 55.9161 120.458C57.2424 118.89 59.0497 116.774 59.3889 114.696C59.7531 112.466 57.1894 116.783 56.9106 117.206C56.8151 117.351 56.7298 117.506 56.6107 117.632C56.4075 117.848 56.8632 117.094 57.0211 116.843C58.2849 114.834 59.6734 112.896 61.0148 110.939C63.6032 107.164 65.6069 103.861 66.6659 99.3687C67.8423 94.3781 66.1426 91.092 71.291 88.6505C71.8281 88.3958 76.2858 86.6525 73.2326 87.4666C73.0226 87.5226 71.6051 87.7378 71.4804 87.956C71.4308 88.0428 71.6808 87.9655 71.7803 87.956C72.542 87.8834 73.6497 87.704 74.3533 87.5929C75.0573 87.4818 76.0959 86.8217 76.4843 87.4193C76.5985 87.5949 76.3495 87.8261 76.216 87.9876C75.0112 89.4442 73.5786 90.6964 72.2697 92.0602C69.4859 94.9606 66.5477 97.8602 64.235 101.168C62.2594 103.994 65.8342 100.923 65.9871 100.805C66.4034 100.485 73.7694 95.3282 73.7851 95.4382C73.9946 96.9049 71.4513 99.7048 70.5649 100.805C69.4732 102.16 68.5535 103.675 67.5025 105.067C66.3557 106.586 65.0263 108.123 64.377 109.945C63.9189 111.231 64.0773 112.621 63.7772 113.939C63.2436 116.281 61.8187 117.419 60.2097 118.99C59.4544 119.727 59.036 120.852 58.2524 121.515C58.0779 121.663 58.1042 119.405 58.0629 119.116C57.9424 118.273 55.9811 120.61 56.7054 118.706C57.5376 116.517 58.8817 114.542 59.8625 112.423C61.2124 109.507 61.9974 106.546 62.7038 103.426C63.073 101.795 63.2327 100.16 64.4244 98.8952C65.8194 97.4143 67.6281 96.2816 69.2389 95.0594C71.1451 93.613 72.4854 92.6197 74.7322 91.8076C75.1828 91.6447 81.5132 89.6713 81.5198 89.9765C81.5456 91.1622 78.1299 94.6725 77.7472 95.1383C76.2647 96.9421 74.5472 98.6714 73.1537 100.553C71.5626 102.701 77.3044 97.17 79.5309 95.6908C82.3017 93.8499 78.9158 96.143 78.0787 96.701C76.6923 97.6253 81.0026 95.0971 82.5143 94.3964C85.3855 93.0654 88.2841 92.0781 91.3699 91.3972C94.383 90.7323 88.8027 91.5642 88.2444 91.6497C86.524 91.9132 94.8169 89.3617 93.2009 90.0081C87.2386 92.393 82.8496 96.2373 78.7732 100.963C78.5957 101.169 76.4513 103.463 76.7211 104.025C76.769 104.125 76.9116 104.151 77.021 104.167C77.7619 104.276 79.909 104.167 80.2412 104.152C83.8481 103.99 87.4345 103.66 91.0226 103.268C94.6997 102.866 91.4055 103.401 90.5806 103.552C87.7425 104.07 84.8759 104.487 81.9934 104.657C80.6659 104.735 77.1947 104.913 77.1947 102.731C77.1947 101.99 76.7017 102.602 76.0739 103.015C74.508 104.046 72.965 105.117 71.3541 106.077C71.2228 106.156 70.8498 106.403 70.9437 106.283C71.5082 105.557 72.4301 105.196 73.2168 104.72C75.6351 103.257 78.1062 102.298 80.8253 101.531C83.4438 100.793 86.1523 100.318 88.7337 99.4477C89.7144 99.1171 90.0271 98.9123 90.2017 97.9323C90.9241 93.8792 95.0579 92.2253 98.7574 91.5235C100.549 91.1835 103.599 91.8573 104.914 90.5132C107.007 88.3727 110.798 87.6305 113.469 86.5984" stroke="black" stroke-width="3" stroke-linecap="round"/>
<path d="M142.032 71C138.443 75.9027 135.858 81.2916 130.288 84.1965C127.78 85.5046 125.259 86.7431 122.79 88.127C122.397 88.3476 118.967 89.8904 120.817 88.2375C122.845 86.425 125.58 85.6773 127.826 84.1965C127.873 84.1652 130.41 81.7086 129.499 81.7656C128.663 81.8178 127.876 82.1767 127.068 82.397C123.826 83.2811 120.564 84.034 117.281 84.749C113.097 85.6601 108.839 86.9115 104.527 86.9115C102.57 86.9115 107.773 84.6499 109.61 83.9755C111.723 83.1995 114.095 82.505 116.302 82.0181C117.304 81.7971 120.026 81.2522 119.381 82.0497C116.701 85.3603 110.619 87.262 106.61 87.8902C106.453 87.9149 102.446 88.6181 103.232 86.9431C104.304 84.6609 108.05 83.028 110.083 82.0813C112.463 80.973 114.648 80.294 117.123 79.4925C118.268 79.1217 120.113 78.7933 121.149 77.9929C121.463 77.7502 120.39 77.6403 119.996 77.693C117.102 78.0807 114.252 78.7975 111.377 79.3031C109.828 79.5757 103.796 81.2708 103.074 78.4822C102.226 75.2073 108.865 73.9425 110.778 73.2731" stroke="black" stroke-width="3" stroke-linecap="round"/>
<path d="M77.0915 100.573C73.7003 107.181 69.1622 113.015 64.4591 118.74C63.4825 119.929 61.0825 123.07 59.3258 123.07C56.8831 123.07 59.9494 112.152 60.3525 110.929C60.7516 109.717 61.1888 107.744 62.5843 107.246C63.491 106.922 61.2036 115.123 60.8212 115.906C60.6417 116.273 57.7063 119.613 59.1026 118.338C62.2105 115.502 65.9344 113.263 69.5031 111.062C71.5839 109.779 74.0272 111.278 75.5292 108.674C76.3884 107.185 69.6524 112.167 69.6371 112.178C68.8704 112.734 60.8233 118.019 60.8435 117.847C61.1648 115.116 63.0202 111.272 64.6823 109.098C65.0601 108.604 65.0583 110.348 64.9055 110.951C64.4284 112.833 63.4452 114.138 62.629 115.839" stroke="black" stroke-width="3" stroke-linecap="round"/>
<path d="M80 123C84.8705 121.659 89.9919 120.485 94.7526 118.73C97.1774 117.836 99.2115 117.883 101.742 118.236C103.48 118.478 105.516 118.695 107 119.824" stroke="black" stroke-width="3" stroke-linecap="round"/>
<path d="M130 118.235C136.237 116.485 142.47 115.627 148.835 116.154C151.367 116.364 153.961 116.544 156.409 117.471C157.337 117.823 158.109 118.62 159 119" stroke="black" stroke-width="3" stroke-linecap="round"/>
<path d="M115.772 133C115.535 137.267 115.145 141.549 115.007 145.821C114.951 147.544 115.221 148.566 116.904 149.31C118.185 149.876 122.844 151.753 122.381 148.973" stroke="#9D7349" stroke-width="3" stroke-linecap="round"/>
<path d="M96.841 88.6363C90.4605 89.2017 84.0907 90.0813 77.7501 90.9785C74.7181 91.4075 72.1905 91.5743 69.7956 93.0113" stroke="black" stroke-width="3" stroke-linecap="round"/>
<path d="M96.0456 81.4772C89.1955 88.8429 78.8903 91.7598 69.7956 95.3977" stroke="black" stroke-width="3" stroke-linecap="round"/>
<path d="M62.1508 67.4153C60.5025 72.7854 57.9457 76.7937 54.4734 81.1223C51.6104 84.6912 49.4653 88.1142 47.8258 92.3576C46.905 94.741 45.2912 95.5996 43.5752 97.2636C43.137 97.6885 43.2592 97.5899 43.1258 96.8891C42.5795 94.0215 42.5671 91.1613 43.1632 88.2941C43.7349 85.5444 45.0896 82.6595 47.4326 80.9725C48.8082 79.9821 48.1157 83.3828 48.088 83.5379C47.0734 89.2105 43.8054 94.085 40.9162 98.9489C39.1867 101.86 34.0045 110.556 35.3547 107.45C36.4948 104.828 39.5795 102.721 41.8524 101.29C47.3035 97.8574 53.4714 95.9162 59.2296 93.1066C59.5992 92.9263 64.238 90.3659 64.6226 91.1966C65.1971 92.4377 63.2217 93.5608 62.3381 94.6046C60.183 97.1501 57.913 99.5964 55.7467 102.132C54.8355 103.199 52.3299 105.518 52.0391 107.263C51.881 108.212 52.2169 105.346 52.3761 104.398C53.1054 100.054 54.1788 95.7424 55.4096 91.5149C55.7195 90.4505 55.8431 90.4641 55.2786 91.4213C52.9901 95.3017 50.6096 99.1249 48.631 103.181C46.3805 107.794 43.9649 113.073 44.0995 118.348C44.1302 119.553 44.6238 123.13 44.6238 121.925C44.6238 117.392 51.3477 105.099 49.3988 109.192C47.9339 112.268 45.8467 115.135 43.9871 117.974C43.3014 119.021 42.7936 120.216 41.9086 121.101C40.3548 122.655 44.2046 117.352 45.4477 115.54C48.1011 111.672 51.1268 108.452 55.0351 105.84C57.5257 104.175 58.1643 104.43 56.4208 107.094C56.1251 107.546 53.3665 111.579 52.4136 110.877C50.9126 109.771 54.6195 104.415 55.0726 103.48" stroke="black" stroke-width="3" stroke-linecap="round"/>
<path d="M106.523 177.893C106.573 177.487 120.698 180.73 121.671 180.793C125.407 181.034 129.666 181.234 133.29 180.245C136.261 179.435 138.707 177.428 141.199 175.703" stroke="#9D7349" stroke-width="3" stroke-linecap="round"/>
<path d="M139 174.006C139.01 173.902 140.602 175.133 141.005 175.488C142.124 176.474 142.42 177 144 177" stroke="#9D7349" stroke-width="3" stroke-linecap="round"/>
</svg>
